<?xml version="1.0"?>
<svg xmlns="http://www.w3.org/2000/svg" viewBox="0 0 16 16">
    <path style="line-height:normal;text-indent:0;text-align:start;text-decoration-line:none;text-decoration-style:solid;text-decoration-color:#000;text-transform:none;block-progression:tb;isolation:auto;mix-blend-mode:normal" d="M 2.5 1 C 1.6774686 1 1 1.6774686 1 2.5 L 1 6.5 C 1 6.8840922 1.1513388 7.2333827 1.3925781 7.5 C 1.1513388 7.7666173 1 8.1159078 1 8.5 L 1 12.5 C 1 13.322531 1.6774686 14 2.5 14 L 6.5 14 C 6.8840922 14 7.2333827 13.848661 7.5 13.607422 C 7.7666173 13.848661 8.1159078 14 8.5 14 L 12.5 14 C 13.322531 14 14 13.322531 14 12.5 L 14 8.5 C 14 8.1159078 13.848661 7.7666173 13.607422 7.5 C 13.848661 7.2333827 14 6.8840922 14 6.5 L 14 2.5 C 14 1.6774686 13.322531 1 12.5 1 L 8.5 1 C 8.1159078 1 7.7666173 1.1513388 7.5 1.3925781 C 7.2333827 1.1513388 6.8840922 1 6.5 1 L 2.5 1 z M 2.5 2 L 6.5 2 C 6.7814686 2 7 2.2185314 7 2.5 L 7 7 L 2.5 7 C 2.2185314 7 2 6.7814686 2 6.5 L 2 2.5 C 2 2.2185314 2.2185314 2 2.5 2 z M 8.5 2 L 12.5 2 C 12.781469 2 13 2.2185314 13 2.5 L 13 6.5 C 13 6.7814686 12.781469 7 12.5 7 L 8 7 L 8 2.5 C 8 2.2185314 8.2185314 2 8.5 2 z M 4 3 L 4 4 L 3 4 L 3 5 L 4 5 L 4 6 L 5 6 L 5 5 L 6 5 L 6 4 L 5 4 L 5 3 L 4 3 z M 9 4 L 9 5 L 12 5 L 12 4 L 9 4 z M 2.5 8 L 7 8 L 7 12.5 C 7 12.781469 6.7814686 13 6.5 13 L 2.5 13 C 2.2185314 13 2 12.781469 2 12.5 L 2 8.5 C 2 8.2185314 2.2185314 8 2.5 8 z M 8 8 L 12.5 8 C 12.781469 8 13 8.2185314 13 8.5 L 13 12.5 C 13 12.781469 12.781469 13 12.5 13 L 8.5 13 C 8.2185314 13 8 12.781469 8 12.5 L 8 8 z M 9 9 L 9 10 L 12 10 L 12 9 L 9 9 z M 3.7285156 9.0214844 L 3.0214844 9.7285156 L 3.7929688 10.5 L 3.0214844 11.271484 L 3.7285156 11.978516 L 4.5 11.207031 L 5.2714844 11.978516 L 5.9785156 11.271484 L 5.2070312 10.5 L 5.9785156 9.7285156 L 5.2714844 9.0214844 L 4.5 9.7929688 L 3.7285156 9.0214844 z M 9 11 L 9 12 L 12 12 L 12 11 L 9 11 z"/>
</svg>
