<?xml version="1.0"?>
<svg xmlns="http://www.w3.org/2000/svg" viewBox="0 0 16 16">
    <path style="line-height:normal;text-indent:0;text-align:start;text-decoration-line:none;text-decoration-style:solid;text-decoration-color:#000;text-transform:none;block-progression:tb;isolation:auto;mix-blend-mode:normal" d="M 7.5 1 C 6.4013528 1 5.5200288 1.8564267 4.9316406 3.0332031 C 4.9273913 3.0417017 4.9241456 3.0520078 4.9199219 3.0605469 C 3.4833501 2.8877891 2.2099858 3.0614944 1.4785156 3.890625 C 1.1055438 4.3130148 0.95684707 4.8701511 1.0117188 5.4199219 C 1.0665904 5.9696926 1.2993378 6.5231383 1.6582031 7.0742188 C 1.7505754 7.2160674 1.8750333 7.3582874 1.984375 7.5 C 1.8749033 7.6418739 1.7506811 7.7837704 1.6582031 7.9257812 C 1.2993378 8.4768618 1.0666628 9.0303637 1.0117188 9.5800781 C 0.95677459 10.129793 1.1038871 10.686943 1.4765625 11.109375 C 2.2080327 11.938505 3.4832794 12.112211 4.9199219 11.939453 C 4.9241456 11.947992 4.9273913 11.958298 4.9316406 11.966797 C 5.5200288 13.143573 6.4013528 14 7.5 14 C 8.5986472 14 9.4799716 13.143573 10.068359 11.966797 C 10.072609 11.958298 10.075854 11.947992 10.080078 11.939453 C 11.51672 12.11221 12.791967 11.938503 13.523438 11.109375 C 13.896112 10.686943 14.043205 10.129783 13.988281 9.5800781 C 13.933358 9.0303729 13.700592 8.4768584 13.341797 7.9257812 C 13.249337 7.7837712 13.125044 7.6418732 13.015625 7.5 C 13.125097 7.3581261 13.249319 7.2162296 13.341797 7.0742188 C 13.700662 6.5231383 13.933337 5.9696363 13.988281 5.4199219 C 14.043225 4.8702074 13.896113 4.3130572 13.523438 3.890625 C 12.791675 3.0611637 11.517362 2.8873834 10.080078 3.0605469 C 10.075854 3.0520078 10.072609 3.0417017 10.068359 3.0332031 C 9.4799716 1.8564267 8.5986472 1 7.5 1 z M 7.5 2 C 8.0083055 2 8.5619151 2.4249007 9.0332031 3.2480469 C 8.5344411 3.3624933 8.0232817 3.5180393 7.5019531 3.7109375 C 6.9799337 3.5177935 6.4662126 3.362534 5.9667969 3.2480469 C 6.4380849 2.4249007 6.9916945 2 7.5 2 z M 3.9609375 4.0058594 C 4.1337284 4.0023923 4.3324884 4.0249132 4.5234375 4.0390625 C 4.3786456 4.4755443 4.2717438 4.9531089 4.1855469 5.4492188 C 3.5999058 5.8602594 3.0976818 6.2936753 2.6582031 6.7363281 C 2.6082039 6.6672575 2.5402267 6.5951152 2.4960938 6.5273438 C 2.198709 6.0706742 2.0407534 5.6503543 2.0078125 5.3203125 C 1.9748716 4.9902707 2.0429875 4.7628446 2.2285156 4.5527344 C 2.506412 4.2377353 3.1204407 4.0227241 3.9609375 4.0058594 z M 11.041016 4.0058594 C 11.881483 4.0227112 12.495504 4.2376934 12.773438 4.5527344 C 12.958761 4.7628021 13.027134 4.9902145 12.994141 5.3203125 C 12.961151 5.6504105 12.801291 6.0706742 12.503906 6.5273438 C 12.459773 6.5951152 12.391791 6.6672574 12.341797 6.7363281 C 11.902078 6.293135 11.400662 5.8587563 10.814453 5.4472656 C 10.728287 4.9518486 10.621171 4.4749926 10.476562 4.0390625 C 10.668218 4.0247988 10.867633 4.002383 11.041016 4.0058594 z M 5.5351562 4.1855469 C 5.7246306 4.224857 5.9124947 4.2654707 6.109375 4.3183594 C 5.8658547 4.4390091 5.6223819 4.5626843 5.3808594 4.6992188 C 5.4305277 4.5233913 5.4772819 4.3475891 5.5351562 4.1855469 z M 9.4648438 4.1855469 C 9.5225206 4.347036 9.5696125 4.5220827 9.6191406 4.6972656 C 9.3781393 4.5610472 9.1355946 4.4387515 8.8925781 4.3183594 C 9.0887704 4.2656503 9.2760045 4.2247693 9.4648438 4.1855469 z M 7.5 4.7929688 C 8.0891689 5.0299765 8.685537 5.3023566 9.2714844 5.6425781 C 9.4936717 5.7715878 9.6891538 5.9115063 9.8945312 6.046875 C 9.9561205 6.5127981 10 6.9935486 10 7.5 C 10 8.0064514 9.9561205 8.4872019 9.8945312 8.953125 C 9.688635 9.0888052 9.4922822 9.2281264 9.2695312 9.3574219 C 8.684138 9.6973217 8.0886288 9.9701479 7.5 10.207031 C 6.9113712 9.9701479 6.315862 9.6973217 5.7304688 9.3574219 C 5.5077879 9.2281256 5.3113318 9.0888056 5.1054688 8.953125 C 5.0438795 8.4872019 5 8.0064514 5 7.5 C 5 6.9935486 5.0438795 6.5127981 5.1054688 6.046875 C 5.311365 5.9111948 5.5077179 5.7718736 5.7304688 5.6425781 C 6.3160743 5.3026641 6.9113767 5.0298508 7.5 4.7929688 z M 10.966797 6.8339844 C 11.233338 7.0560901 11.472052 7.277165 11.689453 7.5 C 11.472227 7.7224862 11.233042 7.9422969 10.966797 8.1640625 C 10.978495 7.9428527 11 7.7272521 11 7.5 C 11 7.2720812 10.978563 7.0558238 10.966797 6.8339844 z M 4.0332031 6.8359375 C 4.0215049 7.0571473 4 7.2727479 4 7.5 C 4 7.7272521 4.0215049 7.9428527 4.0332031 8.1640625 C 3.7669408 7.9422971 3.5278091 7.7224858 3.3105469 7.5 C 3.5277728 7.2775138 3.7669584 7.0577031 4.0332031 6.8359375 z M 7.5 7 A 0.5 0.5 0 0 0 7 7.5 A 0.5 0.5 0 0 0 7.5 8 A 0.5 0.5 0 0 0 8 7.5 A 0.5 0.5 0 0 0 7.5 7 z M 2.6582031 8.2636719 C 3.0978682 8.7065134 3.5997192 9.1395739 4.1855469 9.5507812 C 4.2717438 10.046891 4.3786456 10.524456 4.5234375 10.960938 C 3.4026558 11.044337 2.561787 10.827246 2.2265625 10.447266 C 2.0412379 10.237198 1.972866 10.009786 2.0058594 9.6796875 C 2.0388528 9.3495895 2.198709 8.9293259 2.4960938 8.4726562 C 2.5402267 8.4048848 2.6082085 8.3327426 2.6582031 8.2636719 z M 12.341797 8.2636719 C 12.391771 8.332743 12.459781 8.4048843 12.503906 8.4726562 C 12.801236 8.9293291 12.961158 9.3495802 12.994141 9.6796875 C 13.027121 10.009795 12.958761 10.237198 12.773438 10.447266 C 12.438213 10.827246 11.597344 11.044337 10.476562 10.960938 C 10.621354 10.524456 10.728256 10.046891 10.814453 9.5507812 C 11.400094 9.1397407 11.902318 8.7063247 12.341797 8.2636719 z M 5.3808594 10.302734 C 5.6218369 10.438986 5.8644934 10.561215 6.1074219 10.681641 C 5.9112038 10.734351 5.7240212 10.775229 5.5351562 10.814453 C 5.4774794 10.652964 5.4303875 10.477917 5.3808594 10.302734 z M 9.6191406 10.302734 C 9.5696125 10.477917 9.5225206 10.652964 9.4648438 10.814453 C 9.2759788 10.775229 9.0887962 10.734351 8.8925781 10.681641 C 9.1355066 10.561215 9.3781631 10.438986 9.6191406 10.302734 z M 7.5 11.289062 C 8.0217063 11.482207 8.5339978 11.637466 9.0332031 11.751953 C 8.5619151 12.5751 8.0083055 13 7.5 13 C 6.9916945 13 6.4380849 12.5751 5.9667969 11.751953 C 6.4660022 11.637466 6.9782937 11.482207 7.5 11.289062 z" font-weight="400" font-family="sans-serif" white-space="normal" overflow="visible"/>
</svg>
